<svg width="512" height="512" viewBox="0 0 512 512" fill="none" xmlns="http://www.w3.org/2000/svg">
  <path d="M376.814 240.105C371.769 232.298 364.298 225.883 355.489 221.895C346.68 217.907 336.883 216.5 327.147 217.843C317.411 219.186 308.15 223.229 300.343 229.574C292.536 235.919 286.471 244.336 282.814 253.905L267.147 293.905C266.147 296.572 264.48 298.905 262.147 300.572C259.814 302.238 257.147 303.238 254.147 303.238C251.147 303.238 248.48 302.238 246.147 300.572C243.814 298.905 242.147 296.572 241.147 293.905L225.48 253.905C221.823 244.336 215.758 235.919 207.951 229.574C200.144 223.229 190.883 219.186 181.147 217.843C171.411 216.5 161.614 217.907 152.805 221.895C143.996 225.883 136.525 232.298 131.48 240.105C126.436 247.912 123.814 256.905 123.814 266.072C123.814 275.238 126.436 284.231 131.48 292.038L193.48 400.038C198.525 407.845 205.996 414.26 214.805 418.248C223.614 422.236 233.411 423.643 243.147 422.3C252.883 420.957 262.144 416.914 269.951 410.569C277.758 404.224 283.823 395.807 287.48 386.238L349.48 278.238C354.525 270.431 357.147 261.438 357.147 252.272C357.147 243.105 354.525 234.112 349.48 226.305L376.814 240.105Z" fill="#FF5D01"/>
</svg>

