<svg width="512" height="512" viewBox="0 0 512 512" fill="none" xmlns="http://www.w3.org/2000/svg">
  <path d="M192 128C192 110.327 198.743 93.3058 210.745 81.3037C222.747 69.3016 239.768 62.5585 257.441 62.5585C275.114 62.5585 292.135 69.3016 304.137 81.3037C316.139 93.3058 322.882 110.327 322.882 128C322.882 145.673 316.139 162.694 304.137 174.696C292.135 186.698 275.114 193.442 257.441 193.442C239.768 193.442 222.747 186.698 210.745 174.696C198.743 162.694 192 145.673 192 128Z" fill="#1ABCFE"/>
  <path d="M192 256C192 238.327 198.743 221.306 210.745 209.304C222.747 197.302 239.768 190.558 257.441 190.558C275.114 190.558 292.135 197.302 304.137 209.304C316.139 221.306 322.882 238.327 322.882 256C322.882 273.673 316.139 290.694 304.137 302.696C292.135 314.698 275.114 321.442 257.441 321.442C239.768 321.442 222.747 314.698 210.745 302.696C198.743 290.694 192 273.673 192 256Z" fill="#0ACF83"/>
  <path d="M192 384C192 366.327 198.743 349.306 210.745 337.304C222.747 325.302 239.768 318.558 257.441 318.558C275.114 318.558 292.135 325.302 304.137 337.304C316.139 349.306 322.882 366.327 322.882 384C322.882 401.673 316.139 418.694 304.137 430.696C292.135 442.698 275.114 449.442 257.441 449.442C239.768 449.442 222.747 442.698 210.745 430.696C198.743 418.694 192 401.673 192 384Z" fill="#FF7262"/>
  <path d="M322.882 128C322.882 110.327 329.626 93.3058 341.628 81.3037C353.63 69.3016 370.651 62.5585 388.324 62.5585C405.997 62.5585 423.018 69.3016 435.02 81.3037C447.022 93.3058 453.765 110.327 453.765 128C453.765 145.673 447.022 162.694 435.02 174.696C423.018 186.698 405.997 193.442 388.324 193.442C370.651 193.442 353.63 186.698 341.628 174.696C329.626 162.694 322.882 145.673 322.882 128Z" fill="#F24E1E"/>
  <path d="M322.882 256C322.882 238.327 329.626 221.306 341.628 209.304C353.63 197.302 370.651 190.558 388.324 190.558C405.997 190.558 423.018 197.302 435.02 209.304C447.022 221.306 453.765 238.327 453.765 256C453.765 273.673 447.022 290.694 435.02 302.696C423.018 314.698 405.997 321.442 388.324 321.442C370.651 321.442 353.63 314.698 341.628 302.696C329.626 290.694 322.882 273.673 322.882 256Z" fill="#A259FF"/>
</svg>

