<svg width="512" height="512" viewBox="0 0 512 512" fill="none" xmlns="http://www.w3.org/2000/svg">
  <path d="M194.56 192C211.2 164.267 242.347 145.067 277.867 145.067C330.347 145.067 373.333 188.053 373.333 240.533C373.333 242.347 373.333 244.16 373.333 245.973C380.587 243.307 388.693 241.387 397.227 241.387C430.933 241.387 458.667 269.12 458.667 302.827C458.667 336.533 430.933 364.267 397.227 364.267H158.293C114.453 364.267 78.9333 328.747 78.9333 284.907C78.9333 241.067 114.453 205.547 158.293 205.547C170.667 205.547 182.187 208.213 192.747 213.653C192.747 213.653 193.173 212.8 194.56 192Z" fill="#0364B8"/>
</svg>

