<svg width="512" height="512" viewBox="0 0 512 512" fill="none" xmlns="http://www.w3.org/2000/svg">
  <rect width="512" height="512" rx="70" fill="#001E36"/>
  <path d="M128 128H384V384H128V128Z" fill="#31A8FF"/>
  <path d="M173.333 213.333V298.667H194.667V266.667H216C237.333 266.667 253.333 250.667 253.333 229.333C253.333 208 237.333 192 216 192H173.333V213.333ZM194.667 213.333H216C225.333 213.333 232 220 232 229.333C232 238.667 225.333 245.333 216 245.333H194.667V213.333Z" fill="#001E36"/>
  <path d="M266.667 266.667C266.667 288 282.667 304 304 304C314.667 304 325.333 300 333.333 293.333V298.667H354.667V213.333H333.333V218.667C325.333 212 314.667 208 304 208C282.667 208 266.667 224 266.667 245.333V266.667ZM288 245.333C288 236 296 229.333 304 229.333C312 229.333 320 236 320 245.333V266.667C320 276 312 282.667 304 282.667C296 282.667 288 276 288 266.667V245.333Z" fill="#001E36"/>
</svg>

