<svg width="512" height="512" viewBox="0 0 512 512" fill="none" xmlns="http://www.w3.org/2000/svg">
  <path d="M128 256C145.673 213.333 180.48 192 232.427 192C310.347 192 321.493 256 360.853 256C387.04 256 406.613 242.667 419.573 216C401.9 258.667 367.093 280 315.147 280C237.227 280 226.08 216 186.72 216C160.533 216 140.96 229.333 128 256Z" fill="#38BDF8"/>
  <path d="M128 320C145.673 277.333 180.48 256 232.427 256C310.347 256 321.493 320 360.853 320C387.04 320 406.613 306.667 419.573 280C401.9 322.667 367.093 344 315.147 344C237.227 344 226.08 280 186.72 280C160.533 280 140.96 293.333 128 320Z" fill="#38BDF8"/>
</svg>

